<svg width="55" height="58" viewBox="0 0 55 58" fill="none" xmlns="http://www.w3.org/2000/svg">
<g id="anchor" clip-path="url(#clip0_118_930)">
<path id="Vector" d="M18.0006 46.0188C21.2336 47.4022 29.1985 46.4478 35.3093 41.8384C35.253 41.5571 35.212 41.2689 35.1866 40.9752C35.154 40.2226 35.4789 39.638 36.0105 39.4439C36.5478 39.2472 36.9852 39.524 37.1604 40.2045C37.2841 40.6873 37.3751 41.1868 37.4822 41.6784C37.6421 42.4159 37.8143 43.1473 37.959 43.8916C38.0188 44.1635 38.0362 44.4541 38.0103 44.7531C37.9909 44.9809 37.9054 45.213 37.7662 45.4165C37.627 45.6199 37.4412 45.7843 37.235 45.8861C37.0179 46.0015 36.7881 46.0431 36.5806 46.0046C36.3729 45.966 36.1993 45.8495 36.086 45.6728C35.9183 45.3675 35.7716 45.0461 35.6468 44.7104C34.1532 45.8047 32.569 46.6897 30.9436 47.3378C27.2766 48.7706 23.6682 49.4683 20.1167 49.191C15.9794 48.8681 13.1261 46.7083 11.2623 43.1158C9.98204 40.6476 9.2773 37.862 8.99881 34.8561C8.87595 33.6551 8.81226 32.4334 8.80809 31.1956C8.81499 30.0229 8.95928 28.8166 9.04718 27.5674C8.81592 27.5891 8.58716 27.5939 8.36259 27.5815C8.14643 27.5691 7.95765 27.4749 7.82671 27.314C7.69576 27.153 7.63018 26.9347 7.64059 26.6941C7.67446 26.2506 7.96169 25.8352 8.42901 25.58C8.58932 25.4891 8.75556 25.4211 8.92296 25.3777C10.1483 25.0892 11.3739 24.8029 12.5987 24.5378C12.8184 24.5103 13.0333 24.5174 13.2368 24.5586C13.694 24.6086 13.8749 24.9502 13.8978 25.4153C13.8912 25.6402 13.8163 25.8741 13.6843 26.0815C13.5523 26.2891 13.3703 26.4591 13.1659 26.566C12.8423 26.7256 12.5102 26.841 12.1786 26.9093C11.8189 26.9984 11.4591 27.0363 11.0746 27.1007C10.7671 27.7092 10.6107 28.3621 10.624 28.9817C10.5268 33.3225 11.0039 37.4171 12.6937 40.9847C13.4039 42.4749 14.3843 43.7533 15.5906 44.7617C15.8363 44.9699 16.116 45.135 16.3595 45.3055C20.1006 39.6381 23.7932 34.0446 27.5367 28.3727L24.0928 25.6746C23.9224 25.9001 23.7631 26.127 23.5879 26.3393C23.293 26.725 22.9765 27.0925 22.6411 27.4385C22.4448 27.6332 22.2073 27.7625 21.9682 27.805C21.7291 27.8475 21.5029 27.8005 21.3274 27.6718C21.167 27.5438 21.0654 27.3482 21.039 27.1175C21.0127 26.8867 21.0632 26.6343 21.1824 26.4013C21.4323 25.881 21.7367 25.3827 22.0879 24.9188C22.779 24.0194 23.511 23.1524 24.2421 22.287C24.4732 22.0166 24.7296 21.7729 25.0049 21.5621C25.1522 21.4349 25.324 21.357 25.4925 21.3408C25.6609 21.3247 25.816 21.3713 25.9327 21.4731C26.0662 21.5746 26.146 21.7383 26.1558 21.9309C26.1656 22.1234 26.1047 22.3303 25.9855 22.5093C25.7304 22.9562 25.4755 23.4032 25.1797 23.9218C26.2384 24.9973 27.5438 25.7091 28.7827 26.6006L36.0505 16.2212C35.8914 15.9553 35.703 15.6812 35.5512 15.3796C34.9567 14.1988 35.1402 12.8656 36.0219 11.8623C37.1196 10.6135 38.6982 10.0321 39.7456 10.5868C40.4649 10.9601 41.131 11.4199 41.7347 11.9599C42.9757 13.0931 42.6836 14.9046 41.0873 16.2718C40.063 17.1492 38.988 17.5409 37.8755 17.3448C37.7726 17.3268 37.6722 17.3016 37.5686 17.2858C37.5456 17.2823 37.5143 17.3046 37.3699 17.3596C35.1379 20.7242 32.8504 24.1726 30.5588 27.6281L35.1034 30.8103C35.3947 30.492 35.6466 30.2073 35.9085 29.9338C36.0848 29.7498 36.2637 29.5074 36.4618 29.4256C36.7101 29.3233 37.0402 29.2611 37.2197 29.3655C37.3609 29.4475 37.382 29.8014 37.3561 30.0473C37.3161 30.2894 37.2177 30.5305 37.0712 30.7452C36.3172 31.9192 35.5636 33.095 34.7707 34.2433C34.5038 34.6078 34.1844 34.9272 33.831 35.1838C33.6664 35.3134 33.4789 35.3886 33.2977 35.3972C33.1166 35.4059 32.9521 35.348 32.8301 35.2322C32.7056 35.1409 32.621 35.0008 32.5885 34.8323C32.5558 34.6639 32.577 34.4756 32.6488 34.2944C32.8632 33.7727 33.1477 33.2702 33.4484 32.6671L29.16 29.6643C25.4523 35.0988 21.7326 40.5503 18.0006 46.0188ZM37.7478 15.169C38.4992 15.6337 39.2984 15.5196 39.9942 14.8121C40.4516 14.347 40.5886 13.8019 40.3023 13.3487C40.0796 12.963 39.8031 12.6237 39.4799 12.3394C39.2031 12.1232 38.8641 11.9996 38.4927 11.9794C37.9008 11.9544 37.3851 12.3965 37.0057 12.9412C36.661 13.4361 36.8277 13.8913 37.0471 14.2569C37.2468 14.5893 37.5117 14.867 37.7478 15.169Z" fill="#0B2EE2"/>
</g>
<defs>
<clipPath id="clip0_118_930">
<rect width="35.7827" height="44.7866" fill="white" transform="translate(25.6885 0.475586) rotate(35)"/>
</clipPath>
</defs>
</svg>
