<svg width="162" height="17" viewBox="0 0 162 17" fill="none" xmlns="http://www.w3.org/2000/svg">
<path id="Vector 4" d="M2 15C2.02156 14.8482 2.09623 14.6986 2.19847 14.561C3.64233 12.6178 5.36703 10.6744 7.30456 8.91775C8.73383 7.62194 11.1663 5.7927 13.9262 6.64773C17.6485 7.80093 19.3391 10.0717 21.6936 12.0888C23.4672 13.6083 25.877 14.654 28.8295 13.7408C32.6996 12.5437 35.2046 9.79669 37.8148 7.72209C39.573 6.32464 42.5625 3.93746 45.8077 4.38349C50.0082 4.96082 51.845 8.33303 53.8998 10.356C56.1902 12.6109 59.8923 15.726 64.6623 14.3646C70.2223 12.7778 72.7184 9.15277 76.1826 6.20297C78.4097 4.30662 81.9971 1.68516 86.0971 2.80084C90.0248 3.86964 91.9684 6.89038 93.9186 9.10836C95.6285 11.0531 98.4834 13.5442 102.48 12.6318C104.593 12.1494 106.236 10.9945 107.676 9.95167C109.922 8.32541 111.924 6.56644 114.135 4.92067C116.705 3.008 119.31 1.09308 123.373 2.46582C127.877 3.9874 130.77 7.19641 134.866 9.13146C137.248 10.2562 139.936 11.2456 142.959 11.3726C149.615 11.6523 154.909 8.11318 160 5.9546" stroke="#F048E9" stroke-opacity="0.58" stroke-width="3" stroke-linecap="round"/>
</svg>
