<svg width="194" height="17" viewBox="0 0 194 17" fill="none" xmlns="http://www.w3.org/2000/svg">
<path id="Vector 5" d="M2 15C2.02593 14.8482 2.11571 14.6986 2.23867 14.561C3.97495 12.6178 6.04896 10.6744 8.3789 8.91775C10.0976 7.62194 13.0228 5.7927 16.3417 6.64773C20.8178 7.80093 22.8508 10.0717 25.6822 12.0888C27.815 13.6083 30.7129 14.654 34.2633 13.7408C38.9173 12.5437 41.9296 9.79669 45.0684 7.72209C47.1827 6.32464 50.7776 3.93746 54.6801 4.38349C59.7314 4.96082 61.9402 8.33303 64.4112 10.356C67.1655 12.6109 71.6174 15.726 77.3534 14.3646C84.0395 12.7778 87.0411 9.15277 91.2069 6.20297C93.8851 4.30662 98.199 1.68516 103.129 2.80084C107.853 3.86964 110.19 6.89038 112.535 9.10836C114.591 11.0531 118.024 13.5442 122.83 12.6318C125.371 12.1494 127.347 10.9945 129.079 9.95167C131.78 8.32541 134.187 6.56644 136.846 4.92067C139.937 3.008 143.069 1.09308 147.955 2.46582C153.371 3.9874 156.85 7.19641 161.776 9.13146C164.64 10.2562 167.873 11.2456 171.507 11.3726C179.511 11.6523 185.877 8.11318 192 5.9546" stroke="#0B2EE2" stroke-opacity="0.72" stroke-width="3" stroke-linecap="round"/>
</svg>
