<svg width="235" height="230" viewBox="0 0 235 230" fill="none" xmlns="http://www.w3.org/2000/svg">
<path id="Vector 16" d="M49.0734 126.376C43.7583 113.633 29.1192 107.611 16.3761 112.927C3.63306 118.242 -2.3885 132.881 2.92661 145.624L49.0734 126.376ZM40 199.292L19.9087 214.169L19.9088 214.169L40 199.292ZM75.0634 199.292L95.2104 214.094L75.0634 199.292ZM85.7379 168.677L110.452 172.445L85.7379 168.677ZM97 114.5L121.156 120.94L97 114.5ZM118 100L109.66 123.568L118 100ZM145.38 129.999L127.726 147.7L145.38 129.999ZM162.118 145.478L147.326 165.632L162.118 145.478ZM195.178 149.433L179.126 130.267L195.178 149.433ZM204.505 123.762L229.3 126.952L204.505 123.762ZM208.598 41.6911L183.627 40.493L208.598 41.6911ZM209.998 15.6398L185.001 15.2549L209.998 15.6398ZM2.92661 145.624C2.89804 145.555 3.13625 146.144 3.50495 147.754C3.85503 149.282 4.21362 151.241 4.58874 153.707C5.38525 158.942 5.96319 164.339 6.85428 171.275C7.67355 177.652 8.72456 184.991 10.3555 191.819C11.8595 198.115 14.4766 206.834 19.9087 214.169L60.0913 184.414C60.8389 185.424 60.085 184.797 58.9872 180.202C58.0164 176.138 57.2349 171.039 56.4466 164.903C55.7302 159.327 54.9255 152.138 54.0199 146.186C53.1517 140.48 51.7986 132.91 49.0734 126.376L2.92661 145.624ZM19.9088 214.169C20.2503 214.631 20.2417 214.65 20.0482 214.339C19.9481 214.178 19.7274 213.815 19.4519 213.289C19.2185 212.844 18.7048 211.829 18.2031 210.425C17.9514 209.721 17.573 208.56 17.2729 207.078C17.0277 205.867 16.5165 202.964 16.9514 199.262C17.3262 196.072 19.1197 186.942 28.4187 181.07C38.0582 174.983 47.4336 177.568 50.9837 178.981C54.8285 180.511 57.3629 182.634 58.5249 183.691C59.9087 184.95 60.9433 186.178 61.6861 187.172C63.1527 189.134 64.3535 191.353 65.1989 193.782C66.6801 198.036 68.6738 208.648 60.524 218.051C56.8324 222.311 52.4796 224.44 49.1809 225.455C45.9998 226.433 43.3146 226.545 41.7235 226.514C38.6808 226.456 36.5918 225.799 36.2599 225.697C35.6701 225.515 35.5554 225.432 36.0981 225.674L56.407 179.984C54.729 179.238 52.9029 178.506 50.9996 177.919C50.0306 177.62 48.8816 177.309 47.5988 177.057C46.3529 176.813 44.663 176.561 42.6782 176.523C40.7728 176.487 37.8448 176.629 34.4786 177.665C30.9949 178.737 26.5149 180.949 22.7398 185.304C20.8788 187.452 19.4203 189.865 18.3904 192.426C17.3702 194.963 16.8523 197.437 16.6581 199.688C16.2803 204.068 17.1058 207.714 17.9791 210.222C18.8608 212.755 20.1139 215.068 21.6349 217.103C22.4049 218.134 23.4672 219.393 24.8775 220.676C25.5944 221.328 26.5275 222.101 27.6807 222.884C28.8005 223.644 30.416 224.609 32.4929 225.436C34.5183 226.242 37.631 227.175 41.5229 227.211C45.6328 227.249 50.4968 226.263 55.1143 223.347C59.6866 220.46 62.549 216.61 64.2128 213.224C65.803 209.988 66.3801 207.052 66.6098 205.096C66.8465 203.082 66.7974 201.387 66.7044 200.2C66.6086 198.977 66.4374 197.941 66.2781 197.154C65.9669 195.617 65.5693 194.39 65.2885 193.603C64.7286 192.036 64.117 190.801 63.7322 190.068C63.3053 189.254 62.8796 188.533 62.5071 187.934C61.7688 186.747 60.9455 185.568 60.0913 184.414L19.9088 214.169ZM36.0981 225.674C36.33 225.777 36.5009 225.853 36.6222 225.908C36.754 225.967 36.7887 225.983 36.764 225.972C36.7548 225.967 36.6776 225.932 36.5631 225.877C36.5053 225.849 36.4003 225.799 36.267 225.733C36.1985 225.699 36.1053 225.652 35.9949 225.595C35.8892 225.541 35.7302 225.459 35.5378 225.355C35.4393 225.302 35.3161 225.235 35.1749 225.156C35.0366 225.078 34.8533 224.973 34.6395 224.846C34.4341 224.724 34.1332 224.542 33.7758 224.309C33.6231 224.209 33.2916 223.986 33.1134 223.863C32.8989 223.712 32.4267 223.367 32.1702 223.172C31.8498 222.921 31.1315 222.328 30.7369 221.982C30.2184 221.504 29.034 220.304 28.3829 219.569C27.4758 218.44 25.4715 215.339 24.4844 213.321C23.2839 209.898 22.5258 200.984 23.6017 195.739C26.0179 190.424 32.9067 182.996 36.6501 180.792C39.1849 179.75 43.5079 178.664 45.2156 178.454C46.36 178.379 48.3084 178.373 49.1091 178.415C49.6983 178.462 50.7322 178.578 51.1769 178.642C51.5268 178.698 52.1554 178.811 52.4342 178.867C52.6637 178.915 53.0832 179.009 53.2731 179.054C53.7153 179.161 54.0761 179.26 54.3166 179.33C54.5678 179.402 54.7793 179.467 54.9368 179.517C55.0977 179.568 55.2363 179.613 55.3462 179.65C55.5608 179.722 55.7354 179.784 55.8503 179.825C55.9707 179.868 56.0714 179.906 56.1453 179.933C56.2891 179.987 56.4019 180.031 56.4652 180.056C56.5339 180.083 56.588 180.104 56.6219 180.118C56.6876 180.144 56.7296 180.161 56.7358 180.164C56.749 180.169 56.726 180.16 56.6559 180.13C56.5212 180.074 56.3261 179.991 56.111 179.898C55.8958 179.806 55.7015 179.721 55.5682 179.663C55.4987 179.632 55.4765 179.622 55.4902 179.628C55.4967 179.631 55.5388 179.65 55.604 179.68C55.6377 179.696 55.6914 179.72 55.7592 179.752C55.8215 179.782 55.9329 179.834 56.0735 179.903C56.1457 179.938 56.2442 179.987 56.3611 180.046C56.4725 180.102 56.6424 180.189 56.8483 180.299C56.9538 180.355 57.0869 180.427 57.24 180.513C57.3896 180.596 57.5909 180.71 57.8267 180.85C57.9239 180.908 58.1326 181.035 58.2436 181.103C58.3712 181.183 58.6473 181.359 58.7953 181.455C58.9694 181.571 59.3507 181.831 59.5571 181.976C59.8073 182.156 60.3641 182.575 60.669 182.814C61.0545 183.129 61.9295 183.892 62.4133 184.346C63.0608 184.993 64.5497 186.683 65.3594 187.747C66.4887 189.46 68.7421 194.319 69.5954 197.517C70.0656 202.545 67.5942 213.187 64.4002 218.197C61.0921 221.536 54.5051 225.497 51.656 226.463C49.8306 226.889 46.7486 227.291 45.5146 227.343C44.6599 227.344 43.1818 227.276 42.5593 227.221C42.0903 227.17 41.2562 227.055 40.8909 226.996C40.5998 226.945 40.0707 226.843 39.833 226.793C39.636 226.75 39.2725 226.666 39.1063 226.626C38.7167 226.53 38.3965 226.442 38.177 226.379C37.949 226.313 37.7562 226.254 37.6104 226.209C37.4618 226.162 37.3333 226.121 37.2305 226.087C37.0296 226.02 36.8657 225.963 36.7565 225.924C36.6425 225.884 36.547 225.849 36.4768 225.824C36.34 225.773 36.2335 225.733 36.1748 225.71C36.0585 225.666 35.9813 225.635 35.9725 225.631C35.9487 225.622 35.9856 225.636 36.1198 225.691C36.2437 225.742 36.4174 225.814 36.6523 225.912L55.8528 179.745C55.5765 179.631 55.3345 179.53 55.126 179.445C54.928 179.363 54.7162 179.277 54.5154 179.197C54.4181 179.158 54.2702 179.099 54.0998 179.034C54.0139 179.001 53.8844 178.951 53.7287 178.894C53.6489 178.865 53.5449 178.827 53.4232 178.784C53.3064 178.743 53.1359 178.683 52.9293 178.615C52.8236 178.58 52.6925 178.538 52.5415 178.49C52.3933 178.444 52.1983 178.384 51.9685 178.318C51.747 178.255 51.4251 178.166 51.034 178.07C50.867 178.029 50.5029 177.945 50.3052 177.902C50.0669 177.852 49.5373 177.75 49.2456 177.699C48.8798 177.64 48.0452 177.525 47.5759 177.474C46.953 177.419 45.4745 177.351 44.6194 177.351C43.3852 177.404 40.3029 177.805 38.4774 178.231C35.628 179.198 29.0409 183.16 25.7328 186.498C22.5387 191.508 20.0672 202.15 20.5375 207.178C21.3908 210.377 23.6443 215.235 24.7737 216.949C25.5835 218.014 27.0726 219.704 27.7204 220.351C28.2045 220.805 29.0798 221.568 29.4656 221.883C29.7708 222.123 30.328 222.542 30.5787 222.722C30.7856 222.868 31.1673 223.128 31.3419 223.244C31.4905 223.341 31.7673 223.517 31.8955 223.597C32.0071 223.666 32.2165 223.793 32.3146 223.852C32.5519 223.992 32.7549 224.108 32.9064 224.192C33.0615 224.278 33.1966 224.352 33.3045 224.409C33.5151 224.521 33.6904 224.611 33.808 224.671C33.9311 224.733 34.0366 224.785 34.1166 224.824C34.2726 224.9 34.4025 224.962 34.4861 225.001C34.5751 225.043 34.6529 225.079 34.7133 225.107C34.8318 225.161 34.9378 225.209 35.0171 225.245C35.1764 225.316 35.3358 225.387 35.4719 225.446C35.7497 225.568 36.0627 225.704 36.3555 225.83C36.6483 225.956 36.9621 226.09 37.2418 226.208C37.3789 226.265 37.5394 226.333 37.7006 226.399C37.7809 226.432 37.8881 226.476 38.0085 226.524C38.0698 226.549 38.1487 226.58 38.2394 226.616C38.3247 226.649 38.4568 226.7 38.6169 226.76C38.6989 226.791 38.807 226.831 38.934 226.877C39.0555 226.92 39.2361 226.984 39.4557 227.058C39.5682 227.095 39.7092 227.142 39.8722 227.193C40.0318 227.244 40.2452 227.309 40.4982 227.382C40.7405 227.452 41.1028 227.552 41.5463 227.659C41.7369 227.704 42.157 227.799 42.387 227.847C42.6664 227.902 43.2956 228.016 43.6458 228.072C44.091 228.135 45.1253 228.252 45.7149 228.299C46.516 228.341 48.4647 228.335 49.6093 228.26C51.3173 228.05 55.6405 226.964 58.1754 225.922C61.919 223.718 68.8078 216.29 71.2241 210.974C72.3 205.729 71.5419 196.815 70.3413 193.392C69.3542 191.374 67.3497 188.273 66.4425 187.143C65.7912 186.408 64.6066 185.208 64.0877 184.73C63.6929 184.384 62.9743 183.79 62.6534 183.539C62.3965 183.344 61.9239 182.999 61.7089 182.847C61.5302 182.724 61.1981 182.5 61.0448 182.4C60.6861 182.166 60.3837 181.983 60.1767 181.86C59.9612 181.732 59.776 181.626 59.6355 181.547C59.4922 181.467 59.3667 181.398 59.2655 181.344C59.0679 181.237 58.9028 181.152 58.79 181.094C58.6725 181.034 58.5713 180.983 58.4938 180.945C58.3424 180.869 58.2156 180.808 58.1318 180.768C57.9653 180.689 57.8198 180.621 57.7245 180.577C57.5276 180.486 57.3188 180.392 57.124 180.304C56.9188 180.212 56.6799 180.105 56.407 179.984L36.0981 225.674ZM36.6523 225.912C47.0389 230.232 59.058 229.511 66.0757 228.528C70.2188 227.948 74.6555 226.986 78.7785 225.538C80.831 224.817 83.2949 223.805 85.7862 222.375C87.9584 221.127 91.9182 218.575 95.2104 214.094L54.9163 184.49C56.3131 182.589 57.7134 181.316 58.6391 180.568C59.5942 179.796 60.3984 179.296 60.8889 179.014C61.8238 178.477 62.3581 178.311 62.2049 178.365C61.9165 178.466 60.8379 178.774 59.1408 179.012C57.4996 179.241 55.969 179.308 54.8719 179.259C54.3445 179.235 54.1193 179.193 54.1661 179.202C54.1694 179.202 54.8104 179.312 55.8528 179.745L36.6523 225.912ZM95.2104 214.094C106.077 199.302 108.788 183.361 110.452 172.445L61.0235 164.909C59.4541 175.202 57.976 180.325 54.9163 184.49L95.2104 214.094ZM110.452 172.445C112.948 156.08 116.873 137.006 121.156 120.94L72.8436 108.06C68.0657 125.983 63.7777 146.845 61.0235 164.909L110.452 172.445ZM121.156 120.94C120.572 123.133 119.824 124.446 119.73 124.614C119.531 124.971 119.46 125.038 119.599 124.853C119.9 124.452 120.42 123.881 120.941 123.439C121.566 122.91 121.346 123.273 120.096 123.742C118.792 124.232 114.766 125.375 109.66 123.568L126.34 76.4321C116.984 73.1212 108.364 74.7387 102.52 76.933C96.7308 79.1069 92.0267 82.404 88.6208 85.2894C85.1107 88.2631 82.0522 91.5881 79.6269 94.8155C77.6842 97.4007 74.4115 102.179 72.8436 108.06L121.156 120.94ZM109.66 123.568C108.78 123.257 109.572 122.93 112.869 127.676C113.632 128.774 114.416 129.967 115.36 131.42C116.242 132.777 117.343 134.485 118.455 136.137C120.654 139.401 123.72 143.705 127.726 147.7L163.035 112.299C162.499 111.764 161.577 110.656 159.923 108.201C159.111 106.995 155.703 101.698 153.934 99.1502C149.223 92.3693 140.867 81.5726 126.34 76.4321L109.66 123.568ZM127.726 147.7C132.016 151.979 139.03 159.544 147.326 165.632L176.91 125.323C172.565 122.135 169.309 118.556 163.035 112.299L127.726 147.7ZM147.326 165.632C153.863 170.43 163.129 174.949 173.096 176.973C182.631 178.91 198.205 179.507 211.229 168.599L179.126 130.267C180.957 128.733 182.75 128.257 183.546 128.14C184.186 128.045 184.073 128.182 183.049 127.974C182.083 127.777 180.846 127.381 179.541 126.791C178.217 126.192 177.295 125.606 176.91 125.323L147.326 165.632ZM211.229 168.599C220.594 160.756 224.557 150.603 226.457 143.558C228.293 136.751 228.978 129.462 229.3 126.952L179.709 120.572C179.574 121.62 179.429 122.854 179.32 123.743C179.199 124.737 179.086 125.626 178.962 126.484C178.71 128.225 178.455 129.525 178.183 130.535C177.558 132.851 177.343 131.76 179.126 130.267L211.229 168.599ZM229.3 126.952C232.959 98.5135 232.384 67.6102 233.57 42.8891L183.627 40.493C182.192 70.4125 183.059 94.5358 179.709 120.572L229.3 126.952ZM233.57 42.8891C233.893 36.1515 234.857 24.9658 234.995 16.0246L185.001 15.2549C184.871 23.6814 184.136 29.8811 183.627 40.493L233.57 42.8891ZM234.995 16.0246C235.076 10.7666 234.215 5.91862 231.827 0.661955L186.302 21.338C186.12 20.9355 185.631 19.7683 185.302 18.1218C184.986 16.5353 184.998 15.3929 185.001 15.2549L234.995 16.0246Z" fill="#EBC8CE"/>
</svg>
