<svg width="340" height="216" viewBox="0 0 340 216" fill="none" xmlns="http://www.w3.org/2000/svg">
<path d="M34.3034 143.317L12.85 156.152L34.3034 143.317ZM43.1972 168.777L63.8591 154.703L43.1972 168.777ZM57.4272 187.363L53.953 212.12L57.4272 187.363ZM117.502 91.1955L92.8513 87.0283L117.502 91.1955ZM125.41 53.5614L102.205 44.2598L125.41 53.5614ZM140.737 50.4973L155.716 30.4821L140.737 50.4973ZM150.813 62.5967L129.899 76.2945L150.813 62.5967ZM168.801 88.6027L190.849 76.8187L168.801 88.6027ZM257.752 138.179L280.874 147.685L257.752 138.179ZM266.57 103.923L290.884 109.739L266.57 103.923ZM286.586 33.8409L310.988 39.275L286.586 33.8409ZM293.305 25.0413L295.455 0.133959L293.305 25.0413ZM305.622 50.4973L286.022 66.0163L305.622 50.4973ZM296.332 89.7535C305.516 100.063 321.319 100.976 331.629 91.7927C341.939 82.609 342.852 66.8062 333.668 56.4962L296.332 89.7535ZM24.5255 175.533C24.6415 176.81 24.7195 177.777 24.7681 178.493C24.8202 179.259 24.8227 179.509 24.8218 179.431C24.8213 179.388 24.8171 179.061 24.8442 178.552C24.8639 178.182 24.9359 176.921 25.2818 175.265C25.3544 174.917 26.3855 168.76 31.6201 163.306C35.0051 159.779 40.5989 156.139 48.1145 155.694C55.1024 155.281 60.327 157.849 63.0735 159.622C67.8269 162.69 70.164 166.582 70.4228 166.988C71.1627 168.151 71.6022 169.076 71.7404 169.37C72.0423 170.013 72.1457 170.339 71.9974 169.936C71.7348 169.222 71.3342 168.026 70.6347 165.911C68.241 158.675 63.1488 142.836 55.7568 130.481L12.85 156.152C16.8731 162.877 20.3483 173.1 23.1644 181.614C23.7673 183.436 24.4592 185.533 25.0715 187.197C25.3605 187.983 25.8469 189.269 26.4762 190.611C26.7782 191.254 27.3675 192.462 28.2433 193.838C28.6381 194.458 31.0971 198.493 35.9583 201.631C38.7587 203.439 44.0336 206.023 51.0683 205.607C58.6307 205.16 64.2678 201.497 67.6926 197.929C73.0066 192.393 74.1029 186.075 74.2264 185.483C74.888 182.315 74.826 179.484 74.8182 178.831C74.7909 176.559 74.571 173.766 74.3202 171.007L24.5255 175.533ZM55.7568 130.481C52.7389 125.437 50.2872 121.517 48.3677 118.714C47.4691 117.402 46.2887 115.744 44.9668 114.205C44.3725 113.513 43.1082 112.083 41.3332 110.626C40.4521 109.902 38.804 108.636 36.5098 107.482C34.5068 106.475 29.7572 104.393 23.3823 104.843C15.5891 105.392 8.83198 109.474 4.64647 115.385C1.23164 120.208 0.435238 124.916 0.187637 126.955C-0.313511 131.081 0.344509 134.401 0.496956 135.195C0.95652 137.59 1.68898 139.709 2.05684 140.745C2.94998 143.262 4.19338 146.213 5.41117 148.975C7.93389 154.695 11.3039 161.749 14.2982 167.744C16.8999 172.953 20.288 179.552 22.5353 182.852L63.8591 154.703C63.9381 154.819 62.1842 151.72 59.0291 145.403C56.2666 139.872 53.2651 133.573 51.1603 128.8C50.0643 126.315 49.43 124.734 49.1763 124.02C48.9708 123.44 49.3125 124.269 49.601 125.772C49.6679 126.121 50.2952 129.094 49.8229 132.983C49.5897 134.903 48.8226 139.52 45.4525 144.279C41.3118 150.127 34.6149 154.175 26.8978 154.719C20.5992 155.163 15.9419 153.105 14.0477 152.153C11.8623 151.054 10.3397 149.873 9.60126 149.266C8.11156 148.043 7.2012 146.974 7.03423 146.78C6.567 146.236 6.53453 146.119 7.11393 146.965C8.15063 148.479 9.97569 151.348 12.85 156.152L55.7568 130.481ZM22.5353 182.852C22.5288 182.842 22.8168 183.284 23.6876 185.119C24.2768 186.361 25.7121 189.533 27.1576 192.184C29.874 197.164 37.4945 209.81 53.953 212.12L60.9014 162.605C62.6706 162.853 64.432 163.406 66.066 164.235C67.6663 165.048 68.8602 165.981 69.6777 166.75C71.1265 168.114 71.5209 169.1 71.0526 168.241C70.8686 167.904 70.6174 167.408 70.2327 166.602C70.0432 166.204 69.8472 165.786 69.614 165.288C69.3922 164.814 69.129 164.251 68.8601 163.684C67.856 161.568 66.1873 158.121 63.8591 154.703L22.5353 182.852ZM53.953 212.12C57.256 212.584 66.3786 214.189 74.6319 214.754C81.8495 215.248 95.6689 215.716 107.343 209.163L82.8693 165.562C84.6255 164.576 85.4096 164.733 83.9607 164.889C82.7104 165.023 80.7612 165.057 78.0466 164.871C72.1445 164.467 67.0632 163.47 60.9014 162.605L53.953 212.12ZM107.343 209.163C123.367 200.169 131.746 185.776 136.011 172.358C140.162 159.296 140.962 145.596 140.962 134.644H90.9619C90.9619 143.735 90.2017 151.417 88.3593 157.214C86.6295 162.657 84.5815 164.601 82.8693 165.562L107.343 209.163ZM140.962 134.644C140.962 118.181 140.21 106.85 142.152 95.3626L92.8513 87.0283C89.9856 103.98 90.9619 122.284 90.9619 134.644H140.962ZM142.152 95.3626C144.61 80.8204 145.577 70.442 148.615 62.863L102.205 44.2598C96.5184 58.4458 94.3451 78.1919 92.8513 87.0283L142.152 95.3626ZM148.615 62.863C145.564 70.4747 139.025 72.8511 136.021 73.3051C133.376 73.705 129.641 73.4196 125.757 70.5124L155.716 30.4821C147.382 24.2447 137.157 22.5654 128.548 23.8668C119.579 25.2225 107.602 30.7961 102.205 44.2598L148.615 62.863ZM125.757 70.5124C126.026 70.714 126.201 70.8566 126.306 70.9455C126.409 71.0323 126.453 71.0753 126.457 71.0797C126.46 71.0825 126.451 71.0735 126.441 71.0626C126.433 71.0531 126.452 71.0733 126.507 71.1444C126.643 71.3216 126.908 71.686 127.499 72.5889C127.795 73.0403 128.109 73.5279 128.523 74.1709C128.919 74.7867 129.386 75.5103 129.899 76.2945L171.726 48.899C168.783 44.4059 165.012 37.4394 155.716 30.4821L125.757 70.5124ZM129.899 76.2945C133.012 81.0469 137.122 86.4205 139.945 90.2486C143.224 94.6964 145.432 97.9165 146.752 100.387L190.849 76.8187C187.647 70.8268 183.469 65.0258 180.189 60.577C176.452 55.5086 173.83 52.1103 171.726 48.899L129.899 76.2945ZM146.752 100.387C148.879 104.367 156.237 118.573 163.935 132.226C167.793 139.07 171.962 146.181 175.839 152.146C177.77 155.117 179.813 158.09 181.853 160.722C183.567 162.933 186.497 166.527 190.283 169.402L220.523 129.583C222.21 130.864 222.568 131.634 221.371 130.089C220.499 128.965 219.291 127.25 217.763 124.899C214.723 120.221 211.145 114.154 207.489 107.67C200.158 94.6669 193.413 81.6162 190.849 76.8187L146.752 100.387ZM190.283 169.402C190.827 169.816 191.531 170.33 192.343 170.86C193.014 171.298 194.454 172.21 196.368 173.049C197.324 173.468 199.036 174.154 201.264 174.634C202.418 174.883 203.985 175.137 205.854 175.191C207.708 175.244 210.217 175.112 213.069 174.349C216.001 173.565 219.304 172.107 222.409 169.582C225.556 167.023 227.845 163.898 229.343 160.66C230.79 157.532 231.359 154.616 231.561 152.365C231.762 150.123 231.628 148.22 231.445 146.83C231.093 144.158 230.383 142.111 229.967 141.028C229.504 139.825 229.03 138.864 228.691 138.221C228.023 136.956 227.371 135.969 226.967 135.384C226.131 134.174 225.293 133.154 224.629 132.398C223.978 131.657 223.036 130.648 221.869 129.609C221.323 129.122 220.282 128.228 218.882 127.293C218.177 126.822 217.013 126.092 215.489 125.378C214.705 125.011 213.659 124.57 212.393 124.169C211.151 123.777 209.413 123.331 207.296 123.12C203.143 122.706 195.53 123.097 188.655 128.889C181.955 134.532 180.282 141.684 179.882 145.37C179.483 149.05 179.998 151.962 180.278 153.299C180.605 154.855 181.017 156.093 181.297 156.861C181.85 158.382 182.447 159.588 182.79 160.252C183.181 161.008 183.571 161.692 183.908 162.258L226.899 136.728C226.899 136.728 227.025 136.939 227.215 137.306C227.356 137.581 227.815 138.48 228.283 139.766C228.52 140.417 228.903 141.555 229.212 143.028C229.475 144.282 229.984 147.128 229.591 150.758C229.197 154.392 227.54 161.508 220.867 167.13C214.017 172.9 206.44 173.283 202.331 172.873C200.236 172.664 198.522 172.224 197.307 171.839C196.067 171.447 195.049 171.017 194.295 170.664C192.831 169.979 191.734 169.287 191.102 168.866C189.848 168.028 188.978 167.271 188.617 166.949C187.82 166.239 187.307 165.673 187.067 165.399C186.812 165.109 186.366 164.581 185.827 163.8C185.571 163.43 185.043 162.642 184.466 161.548C184.172 160.991 183.735 160.11 183.3 158.978C182.911 157.966 182.219 155.983 181.874 153.365C181.694 152.002 181.562 150.124 181.76 147.904C181.96 145.675 182.524 142.779 183.963 139.668C185.454 136.446 187.732 133.336 190.865 130.788C193.956 128.274 197.242 126.824 200.154 126.046C202.985 125.289 205.471 125.159 207.298 125.211C209.139 125.265 210.676 125.515 211.795 125.756C213.956 126.221 215.584 126.879 216.442 127.255C218.159 128.008 219.341 128.774 219.681 128.996C220.162 129.31 220.463 129.538 220.523 129.583L190.283 169.402ZM183.908 162.258C183.983 162.384 183.905 162.263 183.748 161.954C183.641 161.746 183.182 160.845 182.716 159.507C182.479 158.828 182.094 157.621 181.803 156.051C181.553 154.694 181.104 151.69 181.68 147.902C182.283 143.935 184.378 137.192 190.956 132.05C197.5 126.933 204.495 126.521 208.403 126.857C212.17 127.179 214.957 128.293 216.228 128.853C217.693 129.499 218.792 130.158 219.431 130.565C220.693 131.371 221.556 132.097 221.895 132.388C222.644 133.033 223.082 133.511 223.242 133.69C223.414 133.881 223.802 134.323 224.311 135.054C224.551 135.396 225.091 136.193 225.685 137.328C225.987 137.907 226.444 138.839 226.891 140.046C227.292 141.128 227.998 143.253 228.283 146.054C228.547 148.641 228.695 154.136 225.564 160.103C223.919 163.238 221.558 166.11 218.527 168.401C215.549 170.651 212.463 171.938 209.769 172.636C207.134 173.319 204.82 173.458 203.093 173.426C201.353 173.394 199.892 173.183 198.812 172.971C196.725 172.561 195.147 171.966 194.303 171.618C192.626 170.928 191.5 170.228 191.228 170.058C190.82 169.804 190.616 169.651 190.68 169.697L220.127 129.288C219.43 128.781 218.593 128.197 217.665 127.619C216.872 127.125 215.336 126.206 213.347 125.387C212.348 124.975 210.638 124.338 208.442 123.907C207.307 123.684 205.797 123.467 204.013 123.435C202.243 123.402 199.89 123.545 197.222 124.236C194.495 124.943 191.381 126.243 188.38 128.511C185.326 130.819 182.946 133.713 181.288 136.874C178.13 142.893 178.269 148.455 178.541 151.125C178.835 154.008 179.566 156.23 180.007 157.42C180.494 158.735 181.006 159.788 181.377 160.497C182.107 161.893 182.836 162.991 183.302 163.658C184.265 165.038 185.256 166.224 186.062 167.121C186.857 168.005 187.96 169.151 189.288 170.293C189.916 170.834 191.046 171.765 192.539 172.718C193.293 173.199 194.498 173.917 196.057 174.604C197.423 175.206 200.294 176.345 204.132 176.674C208.111 177.015 215.164 176.59 221.752 171.44C228.373 166.264 230.496 159.466 231.111 155.422C231.699 151.556 231.245 148.45 230.971 146.967C230.658 145.271 230.231 143.913 229.932 143.056C229.341 141.361 228.676 139.995 228.268 139.196C227.808 138.297 227.333 137.46 226.899 136.728L183.908 162.258ZM190.68 169.697C192.603 171.099 205.845 184.791 227.745 184.791V134.791C227.042 134.791 226.917 134.709 227.143 134.774C227.374 134.84 227.49 134.921 227.347 134.836C227.092 134.684 226.595 134.352 225.37 133.38C225.072 133.144 224.763 132.896 224.396 132.601C224.047 132.321 223.63 131.985 223.208 131.649C222.359 130.974 221.304 130.147 220.127 129.288L190.68 169.697ZM227.745 184.791C241.063 184.791 252.668 179 260.801 172.863C269.007 166.672 276.678 157.893 280.874 147.685L234.63 128.673C234.657 128.607 234.416 129.172 233.614 130.154C232.846 131.095 231.833 132.085 230.686 132.95C229.531 133.821 228.514 134.361 227.806 134.641C227.08 134.929 227.074 134.791 227.745 134.791V184.791ZM280.874 147.685C286.215 134.695 289.002 117.61 290.884 109.739L242.256 98.1079C238.79 112.599 238.021 120.425 234.63 128.673L280.874 147.685ZM290.884 109.739C293.483 98.8757 296.875 88.1728 300.58 76.3589C304.189 64.8507 308.084 52.3163 310.988 39.275L262.184 28.4067C259.802 39.0995 256.529 49.7338 252.871 61.3972C249.31 72.7548 245.337 85.2261 242.256 98.1079L290.884 109.739ZM310.988 39.275C311.203 38.3121 311.384 37.4154 311.505 36.8183C311.646 36.1263 311.707 35.8379 311.753 35.6362C311.914 34.9374 311.613 36.6809 310.382 38.9775C308.802 41.9227 305.72 45.7563 300.589 48.1254C296.036 50.2271 292.264 50.0444 291.154 49.9486L295.455 0.133959C291.595 -0.199444 285.763 -0.101471 279.63 2.72984C272.919 5.82858 268.735 10.8409 266.319 15.3448C264.251 19.2001 263.381 22.8822 263.024 24.433C262.812 25.3561 262.627 26.2703 262.509 26.85C262.372 27.5244 262.281 27.9685 262.184 28.4067L310.988 39.275ZM291.154 49.9486C284.936 49.4116 281.05 46.5371 279.923 45.6502C278.457 44.4968 277.682 43.508 277.43 43.1759C277.117 42.7613 276.872 42.3672 276.639 41.907C276.508 41.6472 275.837 40.328 275.366 38.1245L324.261 27.6716C322.964 21.6059 319.844 16.3653 317.301 13.0044C315.83 11.0597 313.699 8.60479 310.846 6.35923C308.331 4.38021 303.024 0.787586 295.455 0.133959L291.154 49.9486ZM275.366 38.1245C275.649 39.4494 275.852 40.6252 276.167 42.3847C276.446 43.942 276.858 46.2163 277.468 48.6005C278.859 54.0389 281.248 59.9872 286.022 66.0163L325.222 34.9782C325.318 35.0999 325.541 35.4209 325.753 35.8723C325.949 36.2911 325.981 36.4965 325.907 36.2072C325.8 35.7893 325.666 35.1439 325.383 33.5653C325.137 32.189 324.761 30.013 324.261 27.6716L275.366 38.1245ZM286.022 66.0163C286.554 66.6883 287.784 68.1865 289.664 69.7524C290.634 70.5606 292.211 71.7543 294.361 72.8469C296.466 73.916 299.955 75.3142 304.491 75.534C309.421 75.7729 314.679 74.5533 319.35 71.5135C323.731 68.6623 326.287 65.0701 327.698 62.4696C330.221 57.8174 330.567 53.6034 330.657 52.4499C330.888 49.4894 330.519 47.1357 330.455 46.7012C330.325 45.8155 330.173 45.0875 330.079 44.6616C329.747 43.1591 329.284 41.6173 329.011 40.7228C328.35 38.5596 327.429 35.7947 326.574 33.2964C325.702 30.7512 324.798 28.1877 324.123 26.3385C323.819 25.5078 323.444 24.4945 323.112 23.6764C323.024 23.4607 322.862 23.0672 322.657 22.6097C322.557 22.3871 322.372 21.9838 322.125 21.4956C322.005 21.2589 321.349 19.9414 320.285 18.4199C319.941 17.9287 318.331 15.5885 315.545 13.3279C314.194 12.2314 310.905 9.76388 305.927 8.50279C299.965 6.99246 292.139 7.46534 285.233 12.4099C279.401 16.5847 277.083 21.9602 276.226 24.3712C275.274 27.0534 274.995 29.3052 274.89 30.4361C274.677 32.734 274.84 34.5382 274.897 35.1326C275.034 36.5754 275.272 37.694 275.334 37.9855C275.433 38.4558 275.528 38.8383 275.585 39.0641L324.041 26.732C324.081 26.8889 324.162 27.214 324.251 27.6379C324.303 27.883 324.535 28.9662 324.671 30.3845C324.71 30.8008 324.755 31.3818 324.774 32.0775C324.792 32.7353 324.795 33.778 324.676 35.0521C324.572 36.1795 324.294 38.4285 323.342 41.1085C322.87 42.3335 321.568 45.0058 320.706 46.4249C319.489 48.1252 316.321 51.4879 314.338 53.0652C311.905 54.6036 306.521 56.8129 303.639 57.4386C300.926 57.7112 295.907 57.4342 293.648 56.9717C291.861 56.4474 288.781 55.1837 287.482 54.4985C286.483 53.9028 284.764 52.719 284.036 52.1498C282.446 50.8598 281.347 49.6404 280.757 48.9472C280.111 48.1881 279.626 47.5256 279.311 47.0755C278.696 46.1964 278.269 45.4625 278.057 45.0888C277.817 44.6641 277.633 44.3108 277.517 44.0803C277.288 43.6287 277.125 43.2717 277.05 43.1047C276.895 42.7585 276.796 42.5134 276.782 42.4807C276.747 42.3945 276.855 42.6648 277.156 43.4898C277.69 44.9518 278.48 47.1876 279.269 49.4922C280.075 51.8437 280.78 53.9793 281.192 55.3295C281.29 55.6485 281.347 55.846 281.373 55.9407C281.416 56.0931 281.35 55.8746 281.255 55.441C281.209 55.236 281.093 54.6961 280.985 53.9626C280.93 53.588 280.851 52.987 280.797 52.2369C280.749 51.5787 280.677 50.2462 280.808 48.5608C280.876 47.6926 281.021 46.4213 281.368 44.9143C281.699 43.4787 282.358 41.1908 283.747 38.6291C285.153 36.0383 287.703 32.4532 292.077 29.6068C294.278 28.1738 296.743 27.0644 299.397 26.3721C302.037 25.6835 304.585 25.4799 306.911 25.5926C311.438 25.812 314.917 27.2071 317.01 28.2706C319.149 29.3576 320.715 30.543 321.671 31.3402C323.524 32.8842 324.724 34.3498 325.222 34.9782L286.022 66.0163ZM275.585 39.0641C276.608 43.0827 279.97 53.252 283.17 62.1333C284.841 66.7701 286.666 71.6102 288.363 75.6764C289.203 77.6867 290.129 79.7915 291.082 81.7052C291.65 82.845 293.451 86.5193 296.332 89.7535L333.668 56.4962C334.999 57.9907 335.705 59.2025 335.765 59.3039C335.939 59.5943 335.965 59.6696 335.837 59.4112C335.58 58.8953 335.133 57.921 334.503 56.4104C333.26 53.4347 331.752 49.4652 330.21 45.1846C328.685 40.9528 327.213 36.6572 326.049 33.1263C325.468 31.3608 324.979 29.836 324.609 28.6406C324.425 28.043 324.28 27.5636 324.174 27.2007C324.059 26.8066 324.026 26.6753 324.041 26.732L275.585 39.0641Z" fill="#EBC8CE"/>
</svg>
